<svg xmlns="http://www.w3.org/2000/svg" viewBox="0 0 64 64">
  <circle cx="32" cy="32" r="32" fill="#111820"/>
  <!-- Globe arc -->
  <ellipse cx="32" cy="32" rx="20" ry="20" fill="none" stroke="#a0c4cc" stroke-width="1.4" opacity="0.5"/>
  <ellipse cx="32" cy="32" rx="20" ry="10" fill="none" stroke="#a0c4cc" stroke-width="1" opacity="0.35" transform="rotate(-25 32 32)"/>
  <ellipse cx="32" cy="32" rx="8" ry="20" fill="none" stroke="#a0c4cc" stroke-width="1" opacity="0.35"/>
  <!-- Connection lines -->
  <line x1="18" y1="20" x2="30" y2="28" stroke="#c0dde4" stroke-width="0.8" opacity="0.5"/>
  <line x1="30" y1="28" x2="44" y2="22" stroke="#c0dde4" stroke-width="0.8" opacity="0.5"/>
  <line x1="30" y1="28" x2="38" y2="40" stroke="#c0dde4" stroke-width="0.8" opacity="0.5"/>
  <line x1="38" y1="40" x2="48" y2="36" stroke="#c0dde4" stroke-width="0.8" opacity="0.5"/>
  <line x1="18" y1="20" x2="22" y2="38" stroke="#c0dde4" stroke-width="0.8" opacity="0.5"/>
  <line x1="22" y1="38" x2="38" y2="40" stroke="#c0dde4" stroke-width="0.8" opacity="0.5"/>
  <!-- Data nodes - warm gold/amber -->
  <circle cx="18" cy="20" r="2.5" fill="#e0b44d"/>
  <circle cx="30" cy="28" r="3" fill="#f0c457"/>
  <circle cx="44" cy="22" r="2" fill="#e0b44d"/>
  <circle cx="38" cy="40" r="2.5" fill="#e0b44d"/>
  <circle cx="48" cy="36" r="1.8" fill="#d4a843"/>
  <circle cx="22" cy="38" r="2" fill="#f0c457"/>
  <!-- Subtle outer glow nodes -->
  <circle cx="14" cy="32" r="1.2" fill="#d4a843" opacity="0.35"/>
  <circle cx="50" cy="28" r="1.2" fill="#d4a843" opacity="0.35"/>
  <circle cx="32" cy="14" r="1.2" fill="#d4a843" opacity="0.35"/>
  <circle cx="28" cy="48" r="1.2" fill="#d4a843" opacity="0.35"/>
</svg>
