<svg xmlns="http://www.w3.org/2000/svg" viewBox="0 0 64 64">
  <circle cx="32" cy="32" r="32" fill="#0a0e14"/>
  <!-- Globe arc - fills the full circle -->
  <ellipse cx="32" cy="32" rx="30" ry="30" fill="none" stroke="#d0e0e6" stroke-width="1.2" opacity="0.4"/>
  <ellipse cx="32" cy="32" rx="30" ry="14" fill="none" stroke="#d0e0e6" stroke-width="0.9" opacity="0.3" transform="rotate(-25 32 32)"/>
  <ellipse cx="32" cy="32" rx="11" ry="30" fill="none" stroke="#d0e0e6" stroke-width="0.9" opacity="0.3"/>
  <!-- Connection lines -->
  <line x1="12" y1="16" x2="28" y2="26" stroke="#dce8ee" stroke-width="0.8" opacity="0.45"/>
  <line x1="28" y1="26" x2="50" y2="18" stroke="#dce8ee" stroke-width="0.8" opacity="0.45"/>
  <line x1="28" y1="26" x2="40" y2="44" stroke="#dce8ee" stroke-width="0.8" opacity="0.45"/>
  <line x1="40" y1="44" x2="54" y2="38" stroke="#dce8ee" stroke-width="0.8" opacity="0.45"/>
  <line x1="12" y1="16" x2="18" y2="42" stroke="#dce8ee" stroke-width="0.8" opacity="0.45"/>
  <line x1="18" y1="42" x2="40" y2="44" stroke="#dce8ee" stroke-width="0.8" opacity="0.45"/>
  <line x1="50" y1="18" x2="54" y2="38" stroke="#dce8ee" stroke-width="0.8" opacity="0.45"/>
  <!-- Data nodes - warm gold/amber -->
  <circle cx="12" cy="16" r="2.8" fill="#f0c457"/>
  <circle cx="28" cy="26" r="3.2" fill="#f5cc5a"/>
  <circle cx="50" cy="18" r="2.2" fill="#e8b84d"/>
  <circle cx="40" cy="44" r="2.8" fill="#f0c457"/>
  <circle cx="54" cy="38" r="2" fill="#e8b84d"/>
  <circle cx="18" cy="42" r="2.2" fill="#f5cc5a"/>
  <!-- Subtle outer nodes near edge -->
  <circle cx="8" cy="32" r="1.3" fill="#e0b44d" opacity="0.3"/>
  <circle cx="56" cy="28" r="1.3" fill="#e0b44d" opacity="0.3"/>
  <circle cx="32" cy="6" r="1.3" fill="#e0b44d" opacity="0.3"/>
  <circle cx="26" cy="56" r="1.3" fill="#e0b44d" opacity="0.3"/>
</svg>
