<svg xmlns="http://www.w3.org/2000/svg" viewBox="0 0 512 512">
  <!-- Safari pinned tab: must be single color, no fills, just paths -->
  <circle cx="256" cy="256" r="248" fill="none" stroke="black" stroke-width="10"/>
  <ellipse cx="256" cy="256" rx="248" ry="120" fill="none" stroke="black" stroke-width="5" transform="rotate(-20 256 256)"/>
  <ellipse cx="256" cy="256" rx="96" ry="248" fill="none" stroke="black" stroke-width="5"/>
  <line x1="96" y1="128" x2="224" y2="208" stroke="black" stroke-width="4"/>
  <line x1="224" y1="208" x2="400" y2="144" stroke="black" stroke-width="4"/>
  <line x1="224" y1="208" x2="320" y2="352" stroke="black" stroke-width="4"/>
  <line x1="320" y1="352" x2="432" y2="304" stroke="black" stroke-width="4"/>
  <line x1="96" y1="128" x2="144" y2="336" stroke="black" stroke-width="4"/>
  <line x1="144" y1="336" x2="320" y2="352" stroke="black" stroke-width="4"/>
  <line x1="400" y1="144" x2="432" y2="304" stroke="black" stroke-width="4"/>
  <circle cx="96" cy="128" r="18" fill="black"/>
  <circle cx="224" cy="208" r="20" fill="black"/>
  <circle cx="400" cy="144" r="14" fill="black"/>
  <circle cx="320" cy="352" r="18" fill="black"/>
  <circle cx="432" cy="304" r="13" fill="black"/>
  <circle cx="144" cy="336" r="14" fill="black"/>
</svg>
